<?xml version="1.0" encoding="UTF-8"?>
<!DOCTYPE svg PUBLIC "-//W3C//DTD SVG 1.1//EN" "http://www.w3.org/Graphics/SVG/1.1/DTD/svg11.dtd">
<!-- Creator: CorelDRAW X7 -->
<svg xmlns="http://www.w3.org/2000/svg" xml:space="preserve" width="27.6314mm" height="122.743mm" version="1.1" style="shape-rendering:geometricPrecision; text-rendering:geometricPrecision; image-rendering:optimizeQuality; fill-rule:evenodd; clip-rule:evenodd"
viewBox="0 0 739 3283"
 xmlns:xlink="http://www.w3.org/1999/xlink">
 <defs>
  <style type="text/css">
   <![CDATA[
    .fil0 {fill:#FEFEFE}
   ]]>
  </style>
 </defs>
 <g id="Слой_x0020_1">
  <metadata id="CorelCorpID_0Corel-Layer"/>
  <path class="fil0" d="M730 499c8,-110 7,-108 7,-299 -5,-57 45,-214 -163,-198 -91,7 -103,51 -154,80 -39,-108 -180,-105 -287,-14l-5 -56 -128 2 0 485 129 -2 3 -333c34,-29 60,-55 131,-44 84,50 25,272 44,379l124 0 4 -334c29,-26 71,-63 132,-43 74,30 23,240 42,377l121 0z"/>
  <path class="fil0" d="M326 2895c179,-65 227,223 80,270 -165,52 -225,-218 -80,-270zm-214 154c23,328 533,306 516,-37 -18,-335 -541,-318 -516,37z"/>
  <path class="fil0" d="M261 1815c2,-138 226,-149 232,1l-232 -1zm357 87c30,-244 -196,-351 -356,-270 -145,73 -141,126 -143,222 -3,97 -5,145 111,220 95,61 272,55 350,-20 -30,-66 -132,-35 -198,-39 -65,-4 -115,-47 -120,-112l356 -1z"/>
  <path class="fil0" d="M593 2275c-74,-149 -459,-125 -446,180 12,298 403,288 445,150 -82,-68 -171,15 -258,-43 -77,-52 -79,-224 36,-255 76,-21 108,10 147,41l76 -73z"/>
 </g>
</svg>
