<?xml version="1.0" encoding="UTF-8"?>
<!DOCTYPE svg PUBLIC "-//W3C//DTD SVG 1.1//EN" "http://www.w3.org/Graphics/SVG/1.1/DTD/svg11.dtd">
<!-- Creator: CorelDRAW X7 -->
<svg xmlns="http://www.w3.org/2000/svg" xml:space="preserve" width="20.843mm" height="110.946mm" version="1.1" style="shape-rendering:geometricPrecision; text-rendering:geometricPrecision; image-rendering:optimizeQuality; fill-rule:evenodd; clip-rule:evenodd"
viewBox="0 0 322 1713"
 xmlns:xlink="http://www.w3.org/1999/xlink">
 <defs>
  <style type="text/css">
   <![CDATA[
    .fil4 {fill:#026CA9}
    .fil5 {fill:#0B72A5}
    .fil38 {fill:#212519}
    .fil35 {fill:#275227}
    .fil24 {fill:#287599}
    .fil36 {fill:#314E30}
    .fil18 {fill:#348596}
    .fil25 {fill:#485431}
    .fil11 {fill:#4F8B94}
    .fil28 {fill:#4F92B3}
    .fil10 {fill:#537130}
    .fil34 {fill:#53A6B1}
    .fil12 {fill:#598835}
    .fil22 {fill:#668939}
    .fil23 {fill:#68963A}
    .fil2 {fill:#6A9746}
    .fil37 {fill:#6D93AF}
    .fil20 {fill:#72AB8E}
    .fil1 {fill:#769A47}
    .fil29 {fill:#76AA6E}
    .fil17 {fill:#82A84A}
    .fil14 {fill:#84AA4D}
    .fil40 {fill:#86B8C7}
    .fil19 {fill:#87AA55}
    .fil6 {fill:#8AB257}
    .fil13 {fill:#8EB06B}
    .fil8 {fill:#90AF90}
    .fil9 {fill:#90B351}
    .fil27 {fill:#97C6B4}
    .fil7 {fill:#99C468}
    .fil3 {fill:#A9D6A6}
    .fil21 {fill:#ACC974}
    .fil33 {fill:#AED2AE}
    .fil15 {fill:#AFD295}
    .fil30 {fill:#B1D5C8}
    .fil31 {fill:#C8D3B2}
    .fil26 {fill:#CCDD9D}
    .fil32 {fill:#CFE7B3}
    .fil39 {fill:#D1E8D3}
    .fil16 {fill:#EDF5D6}
    .fil0 {fill:#FAFAFA}
   ]]>
  </style>
 </defs>
 <g id="Слой_x0020_1">
  <metadata id="CorelCorpID_0Corel-Layer"/>
  <path class="fil0" d="M86 2c-5,2 -8,5 -13,5 -2,5 -8,4 -9,13l0 71c-1,32 -2,61 2,92 9,4 9,12 33,9 18,-11 20,-7 20,-41 0,-21 -1,-42 0,-63 4,1 4,3 7,6 3,3 5,5 5,8 5,3 3,2 6,5 4,2 2,0 3,4 2,4 9,8 14,10 4,0 9,1 13,0l6 -3c3,-1 0,0 3,-1 1,-2 0,-1 3,-4 2,-3 1,-2 4,-3 0,-4 2,-4 4,-6 1,-4 0,-1 1,-4 2,-2 0,0 3,-2 3,-4 6,-9 10,-10 1,14 -1,76 1,84 5,25 44,26 53,6 6,-12 3,-103 3,-128 0,-12 2,-31 -5,-38 -3,-2 -2,-2 -5,-4 -1,-1 -1,-1 -2,-2 -2,-2 -1,-1 -2,-2 -11,-3 -13,-7 -27,-1 -6,2 -17,8 -19,14 -2,4 0,1 -4,6 -2,2 -2,2 -3,4 -2,2 -5,6 -9,8l-4 6 -4 5c-6,4 -7,11 -15,14l-28 -33c-3,-2 -1,0 -4,-3 -1,-1 0,0 -1,-2 -2,-2 -3,-3 -5,-6 -3,-9 -22,-19 -35,-14z"/>
  <path class="fil0" d="M203 357c-2,7 -8,14 -14,19 -10,6 -14,8 -29,8 -11,0 -20,-3 -27,-9 -5,-2 -2,0 -6,-4 -2,-2 -2,-3 -4,-6 -1,-4 -5,-9 -8,-21 -6,-23 4,-55 23,-63 2,-2 0,0 3,-2 0,0 1,0 1,0 1,-1 1,-1 2,-1 18,-6 28,-3 42,4 3,1 4,1 6,3 3,3 2,2 3,4 7,9 12,19 14,31 1,10 0,31 -6,37zm-62 -124c-5,1 -11,4 -16,3 -4,4 -4,3 -10,5 -4,3 -7,4 -11,7 -3,2 -9,7 -11,8 -2,5 0,1 -2,4 -2,2 0,0 -3,2 0,1 0,1 -1,1 -2,3 -2,4 -4,6 0,0 -1,2 -1,2 -2,2 -1,1 -3,2l-3 7c-1,5 1,2 -3,5 -5,18 -15,27 -10,61 5,31 14,34 22,50 4,1 2,0 5,3 3,3 2,2 3,4 6,7 19,14 26,18 12,4 22,7 38,7 25,0 56,-7 69,-21 1,-5 -1,-2 3,-4 5,-2 14,-15 18,-20 4,-9 9,-18 11,-28 2,-20 2,-26 1,-47 -1,-5 -3,-13 -5,-18 -2,-4 -7,-12 -8,-16 -2,-1 -2,0 -5,-3 -2,-3 0,-1 -1,-4l-7 -7 -12 -11c-11,-9 -31,-16 -48,-17l-2 0 -30 1z"/>
  <path class="fil0" d="M161 1151l1 -5c5,2 4,2 5,8l1 3c2,3 3,6 2,9 4,3 5,8 5,13l-25 0c1,-8 9,-20 11,-28zm-41 -31c-1,5 0,3 -3,6 -10,23 -29,57 -41,83 -6,15 -17,30 2,44 6,4 16,7 26,5 6,-1 11,-5 14,-9l3 -4 11 -24 59 -1c2,3 3,5 4,10 3,5 5,12 9,19l6 5c10,8 27,4 36,-3 13,-10 9,-23 3,-37l-30 -67c-2,-3 -3,-2 -3,-6 -3,-11 -22,-44 -22,-52 -5,-4 -6,-13 -13,-18 -7,-6 -17,-5 -27,-4 -13,8 -10,4 -20,24 -3,6 -13,24 -14,29z"/>
  <path class="fil0" d="M106 1284c-2,2 0,0 -4,3 0,0 -1,1 -2,1 -2,1 -3,2 -5,4 -12,8 -12,25 -2,34 3,2 3,2 4,6l24 32 5 6 4 8c-2,7 -13,19 -17,25 0,5 -1,4 -4,5l-2 4c-1,2 -1,3 -2,5 -3,4 1,-1 -1,1 -2,2 -1,1 -3,2 -6,10 -31,32 0,50 9,5 22,6 30,0 8,-6 11,-19 17,-23 2,-5 4,-7 6,-11l4 -7c3,-4 0,-1 3,-3l3 4 0 -1c2,2 1,0 3,3 1,2 1,3 2,4 2,4 3,4 4,9l8 11c5,1 0,0 6,4 9,8 2,6 10,8l0 4c3,8 48,-4 38,-32 -4,-10 -29,-37 -30,-44l-14 -18c2,-4 18,-27 22,-29 1,-4 6,-9 9,-14 3,-4 7,-9 10,-14l3 -4c2,-14 1,-12 -3,-23 -4,-1 -2,0 -5,-4 -3,-3 -8,-6 -14,-7 -10,-3 -13,1 -20,2 -1,2 0,1 -3,3 -4,4 0,1 -4,2 -2,5 -7,12 -10,16 -2,3 -7,15 -10,16 -2,4 -2,5 -5,9 -3,-2 -5,-7 -7,-11l-5 -9c-4,-3 -3,-2 -5,-7 -6,-15 -20,-25 -38,-20z"/>
  <path class="fil0" d="M145 1527c-1,2 -7,8 -10,10 -2,14 -2,2 -2,25l0 89c0,27 -9,62 27,62 11,0 18,-1 24,-7 8,-11 5,-38 5,-54 0,-17 2,-105 -2,-115 -7,-13 -29,-19 -42,-10z"/>
  <path class="fil0" d="M145 846c-1,2 -7,8 -10,10 -2,14 -2,2 -2,25l0 89c0,28 -9,62 27,62 11,0 18,-1 24,-7 8,-10 5,-37 5,-53 0,-18 2,-106 -2,-116 -7,-13 -29,-19 -42,-10z"/>
  <path class="fil0" d="M95 835l-5 5c-4,4 -5,9 -5,17 0,10 5,12 5,17 7,2 8,6 15,6l28 1 0 40c6,-2 17,-5 24,-4 8,0 14,3 20,6 0,0 1,-1 1,0l5 0c3,3 2,3 5,6 0,-8 0,-16 0,-24 0,-3 -1,-22 2,-23l31 -3c5,-2 12,-9 14,-14 4,-12 0,-18 -3,-25 -3,-2 -2,-2 -5,-5 -1,0 -2,-1 -2,-1 -2,-2 -1,-1 -3,-3 -14,-2 -4,-3 -30,-3 -11,0 -23,0 -35,0 -18,0 -52,-3 -62,7z"/>
  <g id="_776154800">
   <path class="fil1" d="M71 640c2,-10 8,-13 17,-9 -1,3 -1,3 -2,4l-6 2c4,6 3,1 6,7l-15 -4zm-3 -9c1,0 4,-2 1,3 -1,3 2,0 -3,2 -1,-4 -3,-4 2,-5zm86 5c-5,-2 1,1 -3,0 -4,0 -1,0 -5,-2 -7,-2 -7,1 -8,-9 4,2 3,3 5,4l9 -4c-1,3 -2,4 -3,6 6,5 -4,0 5,3l1 0c-2,1 0,0 -1,2zm-29 -19c8,1 6,4 14,1l0 6 -8 -3 -3 6c0,0 0,-1 0,-1 0,0 -3,-4 -3,-9zm-70 6c-4,-1 -6,-1 -6,-6 5,-3 5,-1 5,-1 8,-1 -4,-3 6,-1 1,6 0,6 -5,8zm52 -13l6 2c0,3 2,-1 -2,5 -4,-3 -2,-1 -4,-7zm22 3c2,-2 4,-5 10,-1 0,1 -2,6 -8,4 -4,-2 0,-1 -2,-3zm-76 -11c0,0 5,-1 0,6 -1,-1 -3,-1 -3,-3 -1,-5 -1,-1 3,-3zm-13 -22c-1,-4 -1,-2 2,-5 3,2 3,3 5,5 8,-8 5,-6 8,-3 0,0 0,1 0,1 -2,4 -2,2 -7,3l-5 5 -3 -6zm-17 -20c-4,-1 -3,-1 -5,-5 7,1 4,-2 5,5zm114 -7c1,-3 3,-2 5,-3 1,7 0,5 -2,8 -2,-1 -4,1 -3,-5zm-102 -2c4,3 1,-4 6,4l-8 1 0 -6c-5,2 -2,2 -5,0l1 -6c8,1 2,3 6,7zm71 2c1,-5 2,-6 6,-6 -1,8 0,5 -6,6zm69 -14l0 5c-1,0 -5,3 -5,-3 0,0 0,-1 0,-1 1,-4 5,-1 5,-1zm-151 -2c0,0 -1,0 -1,1l0 1c0,0 2,2 -5,8 3,1 3,0 4,3l-10 2c-2,-4 -1,-6 -1,-6 0,-3 1,1 0,-4 3,2 3,7 8,-1 -4,-3 -3,0 -7,-6l12 2zm80 -6c3,0 1,-1 3,1 -3,7 -6,6 -14,8 2,-11 2,-5 8,-5l3 -4zm-53 -5c2,5 1,5 0,6 -5,-1 -2,0 -6,-3 2,-4 1,-3 6,-3zm-9 -6c2,2 3,-4 2,4 -1,6 1,2 -3,4 -2,-3 -3,3 -2,-5 1,-3 0,-1 3,-3zm23 -6l-1 6c-4,-2 -2,-1 -4,-4 2,-2 -4,-2 5,-2zm-31 11c0,0 0,-1 0,-1 0,0 0,-1 0,-1l-1 -4c-2,-3 -2,-1 -1,-5l0 -2c1,-6 0,-2 2,-7 5,1 4,-1 7,5 -5,6 -1,-2 -5,4l5 3c-4,3 -4,5 -7,8zm-15 -13c0,0 1,0 1,0 14,-6 0,-3 10,-6l-1 6c0,1 -1,0 -2,5l-4 -2 2 5c-4,2 -2,1 -5,4l2 2c1,-5 0,-2 3,-5 5,9 0,9 -1,10l-8 -4c1,-5 2,-10 3,-15zm27 -4c3,-8 5,-6 7,-7l5 10c-6,1 -7,1 -5,-4l-7 1zm121 -3c0,-3 -1,-4 5,-7 0,0 1,0 1,-1 1,0 1,0 2,0 -2,5 -3,5 -8,8zm-17 -15c-5,3 -4,0 -4,0l0 -6 7 1c-2,3 0,2 -3,5zm-101 -9l4 -1c-1,6 -1,6 -3,12l5 3c-1,1 -1,1 -1,1 -7,0 -2,-2 -9,2l-1 -11 3 1c3,0 0,1 3,0l-1 -7zm103 0c-5,1 -1,1 -3,-1 1,-4 -1,-3 3,-3 4,-1 2,1 3,1 -1,2 1,2 -3,3zm-28 -12l2 10c-4,0 -5,-1 -8,-3 1,-6 0,-6 6,-7zm-26 7c3,-2 -3,-1 3,-2 3,0 3,2 6,4 4,3 6,1 4,8 -3,-1 -2,-1 -3,-2 -1,-1 -3,-3 -3,-3 -4,-3 -4,-2 -7,-5zm-36 18c1,-14 6,-6 7,-5 9,1 5,-8 6,-11 0,-3 -2,-3 -2,-3l10 -2c-2,8 -6,10 -7,10 0,0 0,0 0,1l7 2c-4,12 -8,5 -9,3 -4,3 -7,5 -12,5zm2 -23c1,0 6,3 3,9 -3,-1 -2,4 -4,-3 -3,-10 1,-5 1,-6zm23 -13l-8 1c1,4 1,2 3,5l-15 1c-1,4 -1,2 0,5 -2,-1 -3,-1 -5,-2 -1,1 -2,-3 -3,4 -4,0 -5,0 -9,3 2,5 -2,2 4,3 1,-5 -1,-2 3,-5 3,3 2,0 3,5 -3,2 0,1 -5,1l0 2c-2,-3 0,-1 -3,-3 -4,-3 0,-2 -3,1l0 2 -2 -3c-3,3 -3,3 -2,7 -6,0 -8,0 -9,5l-2 14c-3,-1 -5,0 -6,-1 -4,0 2,-3 -4,0 0,3 0,3 1,7l-7 0c-4,6 -4,5 -7,13 -2,6 -4,7 -3,18l0 11c5,2 4,3 4,10l5 1c0,1 0,1 0,2l-2 4c-1,0 0,1 0,1 0,0 0,1 0,1l3 0c4,-1 1,-1 5,-3l1 4c3,-2 4,-3 8,-2 4,7 -3,2 0,8 5,-1 -4,1 2,-1 3,-1 -1,-1 3,-1l2 10c-5,1 -2,-1 -4,2 4,7 2,3 2,11l-12 1 4 10c3,2 2,2 3,3 0,1 0,2 0,2 0,0 1,1 1,1l5 3c1,-5 1,-3 1,-7 1,-7 -1,-3 2,-7 2,3 1,3 1,7l4 2c-3,4 -2,2 -3,7l-4 0 2 1c1,1 0,0 2,2 4,3 2,-1 3,4l1 4 9 0 5 1c0,0 0,0 1,0 0,0 1,-1 1,-1 -1,5 -1,3 0,8 6,1 1,1 5,0 3,0 0,0 3,0l1 2c9,1 2,0 6,3 4,3 2,1 7,2 7,0 14,0 21,0 -1,-1 -1,-2 -3,-4 -5,1 0,1 -6,1 -2,0 -6,0 -7,0 -1,-6 0,-1 1,-6l0 -10c-2,-5 -3,0 -1,-5l1 -2c-2,-1 -1,-1 -3,-3 1,-2 1,-3 3,-5 2,5 0,7 8,7 6,0 -1,-1 3,0 0,0 0,0 0,0l4 1c3,2 0,0 2,3 1,2 -2,-1 2,3l2 -1c1,-1 1,-1 1,-1l4 -4c5,2 2,0 5,7l0 2c0,-1 1,-3 1,-3l3 15c3,-4 3,-2 6,-1l1 -2c0,0 -2,1 0,-3 1,-5 0,-2 2,-4 4,2 1,0 3,3 0,0 0,0 0,1 3,8 1,-5 4,3 -1,3 0,1 -3,2 -2,1 0,0 -3,1 -2,1 -1,1 -3,2l5 -1c2,2 1,1 3,3l8 -7c0,0 0,0 1,0l4 -2c0,0 0,0 0,-1l3 -1c5,-11 -7,-14 -4,-34 -5,-6 -6,-9 -16,-9 0,5 1,4 -1,8 -1,4 -1,2 -1,6l-11 0c0,4 1,1 -1,1 -4,0 3,-1 -3,-1l-3 1c-5,0 -7,0 -10,3 -4,-1 -3,-1 -5,-3 -2,2 -3,3 -6,3 -5,-5 -4,0 -5,-7 -11,-4 -14,-1 -19,-12 -8,-3 -8,-7 -10,-13 -5,-15 0,-16 -10,-21 1,-7 0,-12 2,-16 2,-7 5,-9 6,-11 0,-1 1,-5 2,-7l4 -1 -2 0c1,-2 2,-3 2,-4 1,-4 1,-2 -1,-4l-1 -2c0,-1 0,-1 0,-1 0,0 2,-3 2,-4 0,0 1,1 1,1l4 0 -2 -7c2,4 -2,0 3,2l-1 -5c1,0 2,0 3,-1 2,-1 1,0 3,-2l0 3 5 -5 -2 6c3,-2 0,-1 4,-1 0,0 2,1 3,1 -2,7 -1,2 -8,7 -2,-3 -3,4 -2,-5 -2,3 -1,-4 -2,4 3,2 -5,3 6,2l6 -1 4 -10c1,2 0,1 1,3 1,0 1,2 2,1 0,0 0,1 1,1l5 -3c3,2 -1,1 4,2 0,-1 0,-1 0,-1l4 -9c1,4 2,4 3,8 0,0 0,-1 0,-1 4,-1 4,1 5,1 1,0 4,-1 10,-1 2,2 -3,2 3,2l-2 -6c-1,0 -1,4 -3,0 0,-1 0,-1 -1,-1 5,-9 1,1 4,-8 0,-2 -1,0 2,-3 4,-4 3,-4 13,-2l2 1c-6,6 -3,1 -13,0 0,7 -1,2 3,5 1,2 -5,1 8,0l-4 6c0,0 0,1 -1,1 9,-1 7,2 7,10l1 2c0,0 1,0 1,0l3 -2c0,0 1,0 1,0l6 -3c1,5 3,13 5,16l-11 -2 -1 3c2,8 4,3 5,14 -8,2 -11,-1 -21,5 1,-5 2,-3 3,-8l-3 0c-1,6 1,3 -3,5 -5,-1 -2,0 -5,-4 -4,1 -3,1 -7,2 -3,1 -4,1 -7,3 0,0 0,0 0,-1 0,0 0,0 -1,0l-3 -3 -3 2 -10 0c0,0 -1,0 -1,0 -3,-1 -2,-2 -7,-3l-1 5c-9,-2 -10,2 -15,-1 0,6 0,4 -5,8 1,3 1,6 2,9l-3 3 -1 2c-2,7 0,-1 3,8l5 10c14,1 5,-5 17,2 4,-3 8,-2 12,-2 5,0 0,0 3,0 11,2 9,-4 16,2 -2,6 4,3 -7,4 -4,0 -4,1 -8,0l1 2 1 -1 12 0 2 0c1,-3 0,-1 2,-3 1,0 5,0 7,0 3,1 3,-2 2,3l16 -1 -9 1c1,-6 -2,-3 2,-5 3,-4 0,-2 5,-2 3,0 10,2 16,1l3 -5c-2,0 -2,-2 -4,2 -5,-8 -8,0 -14,-3 -4,-2 -1,1 -3,-4 1,0 1,0 4,-1 3,0 1,1 6,-1 2,0 1,2 2,-1 -1,0 -1,0 -1,-1l-3 -2c-2,-2 -1,0 -2,-3 2,-1 -3,-1 4,-2 3,-1 4,1 7,4l-1 4 0 1c1,0 3,1 3,1 4,2 0,-1 3,2 2,0 6,2 7,-1 -2,1 -1,1 -4,2 0,-7 1,-3 -3,-9l-4 -2c3,-2 3,-1 5,-4 1,-4 -2,-9 4,-6 5,4 -1,1 6,1 5,0 -1,-1 3,1 -2,-4 -2,-2 -1,-7 7,1 6,1 6,9l-6 -1c2,1 1,1 4,2 0,0 2,0 3,0 1,0 4,-1 5,-1 0,-9 -2,-2 -4,-8l6 -6 2 7c2,1 -4,2 4,1 0,-3 0,-5 0,-7 -1,-4 0,-2 -3,-4 6,-3 -2,-12 -3,-15l-2 -5 -5 2c-5,2 -4,11 -4,11l3 1c2,1 3,0 5,4 -4,-1 -5,1 -7,-3 -7,0 -4,-1 -7,4l-2 -6c0,-1 0,-1 0,-1l0 -3c0,3 -2,3 3,2 6,-1 1,1 3,-13 -5,1 -4,1 -5,-5l6 0 2 -6c-2,0 -1,0 -4,0 -4,-1 1,1 -3,-1 0,-1 1,-2 1,-2 0,-3 -1,-2 -1,-4 0,-1 -1,-1 -1,-1l1 -2c-5,1 -6,3 -4,2l-3 -4c3,-2 4,0 2,-3 -3,-1 -1,0 -4,-1l-13 -10c-4,-2 -2,-1 -3,2l-8 -7c-3,2 -3,0 -4,4 -1,-4 0,-3 2,-7l-9 2c-4,1 -4,0 -7,3 -2,-3 4,-2 -2,-2 5,-4 3,0 4,-6l-5 2c-2,-7 2,-4 -5,-6l0 7c5,0 1,-2 4,1 -1,3 -2,6 -5,6 -4,1 0,-2 -6,0 -3,-3 -4,4 -2,-5 -3,1 0,1 -2,-1 0,-4 1,-5 0,-8 -8,0 0,-1 -7,5 -1,-3 0,-3 -1,-5 -6,1 -3,3 -10,1z"/>
   <path class="fil2" d="M292 636c-4,1 -5,2 -8,1 1,-3 0,-1 2,-3 4,-3 1,2 3,-5l4 1c-1,3 -1,3 -1,6zm-37 -76c-4,2 -3,3 -8,7l-3 3c-2,2 1,0 -3,3 -1,5 -3,7 -3,13 -3,0 -1,-1 -4,2 0,5 -3,12 -2,19 0,1 1,7 1,9 1,3 2,3 3,7l2 5c6,3 13,10 3,17l-4 2c0,1 -1,1 -1,1 0,0 -1,1 -1,1l8 0c2,-4 1,-3 8,-6l4 -2c1,2 2,4 0,4 6,-1 0,-1 6,-1 4,0 0,-2 3,2 3,-9 2,0 5,-6 5,4 1,3 5,9 0,-1 0,-1 0,-1 1,2 1,-1 2,-1l7 -3c4,0 3,0 6,1 3,-8 3,-7 8,-10l4 5c1,-3 3,-7 7,-9 -3,5 0,4 -2,8 -4,5 -7,1 -5,6 4,-3 5,-3 9,-8 7,-9 1,6 10,-18 3,-8 3,-32 -6,-45 -3,-3 -5,-5 -7,-6 -8,-2 -7,-5 -15,-8 -1,1 -4,-3 -2,4 -5,-6 -10,-4 -10,0 -1,8 0,-3 3,12l11 2c1,3 1,1 -1,6 8,0 2,-1 7,-2 1,4 0,4 0,10 0,7 -1,-3 -2,7 3,11 -3,21 -10,26 -14,12 -19,1 -27,1 -1,-5 -2,-5 -3,-12 1,-4 -1,-9 -1,-13 0,-4 2,-6 2,-11 -1,-8 -2,-1 2,-7 3,-5 1,-6 6,-10l4 -4 7 1c0,-7 -3,-8 -8,-13l-15 3z"/>
   <path class="fil2" d="M186 561c-1,4 1,1 -1,4 -2,3 1,0 -2,2 -5,3 1,-1 -4,0 -7,2 0,2 -7,7 -5,4 -3,6 -5,9 0,0 0,0 0,1l-2 4c0,0 0,0 0,0 0,0 0,1 0,0l-4 2c-1,6 -2,6 -2,13 0,3 1,5 1,7 2,14 -1,11 7,24 2,2 2,3 5,5 2,2 5,2 4,7 0,3 -1,1 2,2 -1,-2 0,-1 -1,-4 5,1 4,1 6,4l5 1 1 0c-1,-2 -3,-3 -4,-6l8 -1c3,3 1,0 2,5l2 -1 1 -6c9,0 7,-1 10,4 0,-1 1,-2 1,-1 0,1 -1,-2 4,-3l3 8c1,-1 1,-3 4,-3 0,0 1,0 1,0 0,0 1,0 1,0l0 2c0,0 0,1 -1,1l-1 2c10,-2 16,-7 20,-13 -3,-4 -2,-2 -5,-5l-2 -3c-27,-14 -2,12 -44,-1 -1,-1 -1,-2 -1,-3 -2,-3 0,-1 -2,-4 -5,-5 -7,-16 -6,-20 1,-5 3,-10 5,-13 2,-3 6,-8 9,-9 1,-3 -3,-4 9,-4 3,-9 2,-3 7,-8 5,10 0,0 -1,8 4,0 1,0 2,3 7,2 7,3 12,5 3,-2 12,-9 13,-13 0,-5 -15,-12 -28,-12 -1,1 -1,-1 -2,3 -2,-5 3,-2 -4,-4 -4,0 -13,2 -16,4z"/>
   <path class="fil3" d="M15 502l4 -1c-1,4 3,2 -4,4l0 -3zm33 -39l0 3c-5,0 -4,0 -7,4 -3,2 -4,3 -5,5 -1,3 -2,5 -3,7l-4 0c-1,2 0,1 -1,3 -2,3 0,0 -2,2 -4,3 -7,7 -8,12l-3 2 0 1c-4,3 1,0 -2,6 -3,6 -2,-2 -4,7 -5,17 -6,8 -7,14 0,6 1,3 1,9 0,9 -5,6 -2,17 2,7 1,3 5,6 0,6 -4,6 2,17 6,14 2,-1 6,17 1,3 1,1 1,3 0,0 1,1 1,2 0,0 0,0 0,0 1,1 1,1 1,1 2,6 1,10 6,13 5,1 2,0 3,-2 -5,-7 -8,-15 -8,-24l-1 -3c-3,-3 -2,-3 -4,-8 -3,-7 -1,-2 -4,-7 0,-1 0,-7 0,-9 -1,-3 0,-1 -1,-3 -1,-2 -3,-3 -2,-10 0,-6 -1,-5 2,-6 -1,-12 1,-13 3,-18 3,-8 3,-7 8,-14l0 -5c3,-2 2,-1 4,-5 4,-13 4,-9 11,-13l2 -1c4,-3 2,-2 4,-6 6,-11 8,-8 12,-14l10 0c3,-9 2,-6 11,-9 9,-2 5,-2 14,1 1,-2 -1,0 1,-4l8 -1c10,-4 16,0 20,1 2,1 8,0 11,0 2,2 4,5 7,7 4,1 7,1 12,1 4,3 -2,2 5,5 4,2 3,0 7,3 4,3 7,7 12,9 3,8 2,4 7,8 2,1 3,3 5,5 4,2 0,1 5,1 -3,-8 -1,0 -6,-6 -2,-3 0,-2 -2,-5 -3,-3 -1,2 -3,-2l-2 -2c0,0 0,0 -1,-1 -6,-4 -3,-1 -6,-5 -5,-6 -7,-3 -9,-9 -1,0 -7,-4 -12,-6 -3,-1 -4,-1 -8,-2 -8,-4 -10,-4 -17,-3 -8,0 -4,-1 -8,-4 -4,-2 -13,0 -19,-1 0,1 -1,1 -1,1l-7 5c-13,-2 -10,-2 -21,3 -4,2 -1,0 -4,2 -2,3 1,6 -13,5z"/>
   <path class="fil4" d="M218 620l1 0 7 -4 -1 -26c-7,0 -8,0 -13,-3 -10,-5 -6,-1 -15,-2 -1,4 -2,3 -5,7 -1,1 -3,4 -4,6 -5,16 7,22 8,22 2,2 -1,0 2,3 2,2 -1,1 4,2 9,2 4,-4 16,-5z"/>
   <path class="fil5" d="M105 580c-9,4 -12,1 -20,1 0,0 0,0 -2,1 0,0 -1,0 -1,0 0,0 -1,0 -1,0l-5 2 3 6 -1 4 8 0 3 6c8,-4 18,5 27,-2 2,-1 0,-3 10,-4 3,-2 0,-4 7,-8 0,-5 0,-2 -1,-3l-12 -1 -2 -3 -12 0 -1 1z"/>
   <path class="fil5" d="M76 518l-1 1 0 5c6,1 6,3 12,1 7,-2 6,-2 13,-1 5,1 7,2 13,2 11,-1 7,2 9,-1 1,-4 3,-4 5,-6l-2 -2c-2,-3 -2,-5 -5,-6 -4,-1 -2,0 -4,-1 -3,-1 -1,0 -3,-2 -7,-3 -25,-1 -31,4 -4,4 -2,3 -6,6z"/>
   <path class="fil6" d="M255 560l15 -3c5,5 8,6 8,13l-7 -1 -4 4c-5,4 -3,5 -6,10 -4,6 -3,-1 -2,7 0,0 1,-1 1,-1 0,1 1,0 1,0 2,-2 0,0 2,-2l4 -3c1,-4 1,-5 5,-5 3,-1 8,0 10,0 5,2 9,7 11,9 6,5 2,4 5,11 1,-10 2,0 2,-7 0,-6 1,-6 0,-10 -5,1 1,2 -7,2 2,-5 2,-3 1,-6l-11 -2c-3,-15 -4,-4 -3,-12 0,-4 5,-6 10,0 -2,-7 1,-3 2,-4 8,3 7,6 15,8 -2,-6 -1,-6 -9,-9 -4,-2 -9,-4 -13,-5 -6,-1 -23,2 -26,4l-4 2z"/>
   <path class="fil7" d="M141 589c-8,2 -9,-1 -10,11 -4,0 -7,1 -11,3 -5,3 -2,1 -7,2 -2,0 -4,0 -6,0 -5,0 -11,-1 -16,-2 1,7 0,2 5,7 3,0 4,-1 6,-3 2,2 1,2 5,3 3,-3 5,-3 10,-3l3 -1c6,0 -1,1 3,1 2,0 1,3 1,-1l11 0c0,-4 0,-2 1,-6 2,-4 1,-3 1,-8 10,0 11,3 16,9 -3,20 9,23 4,34l10 -1c-8,-13 -5,-10 -7,-24 0,-2 -1,-4 -1,-7 0,-7 1,-7 2,-13l2 -11c0,0 -1,1 -1,1l-5 9c-1,2 -1,6 -2,11 -4,-3 0,2 -4,-4 -3,-5 0,-8 -10,-7z"/>
   <path class="fil8" d="M41 635l18 7c11,8 -2,8 37,8 12,0 23,0 35,0 10,0 27,2 26,-9 0,0 3,-2 3,-2 6,-4 -4,2 3,-2 5,-3 2,0 4,-3l-10 1 -3 1c0,1 0,1 0,1l-4 2c0,4 0,-1 0,4l-1 3c-5,1 -2,1 -8,0 -2,-2 -1,-1 -3,-3l-5 1c-4,4 -8,2 -13,3l-14 0c-7,0 -14,0 -21,0 -5,-1 -3,1 -7,-2 -4,-3 3,-2 -6,-3l2 5c-6,1 -3,1 -9,-2l3 -5c-4,1 1,1 -5,0 -4,-2 -1,0 -4,-2 0,0 -2,-2 -3,-2l0 -4 -9 0 -1 -4 -4 1c-2,-2 0,-1 -2,-2 -1,-1 0,-1 -2,-2 2,8 1,4 3,5l4 3c-3,3 3,3 -4,2z"/>
   <path class="fil9" d="M87 458c7,2 4,0 10,-1 1,2 0,2 1,5 7,-6 -1,-5 7,-5 1,3 0,4 0,8 2,2 -1,2 2,1 5,0 1,-2 4,-8 4,3 1,1 3,4 2,3 -2,1 2,2l0 -7c7,2 3,-1 5,6l5 -2c-1,6 1,2 -4,6 6,0 0,-1 2,2 3,-3 3,-2 7,-3l9 -2c-2,4 -3,3 -2,7 1,-4 1,-2 4,-4l8 7c1,-3 -1,-4 3,-2l13 10c3,1 1,0 4,1l0 -4c-5,-2 -8,-7 -12,-9 -4,-3 -3,-1 -7,-3 -7,-3 -1,-2 -6,-5 -4,-1 -8,0 -11,-2 -3,-1 -6,-4 -7,-6 -3,0 -9,0 -12,0 -3,-1 -9,-6 -19,-1l-8 1c-2,3 -1,2 -1,4z"/>
   <path class="fil7" d="M100 578c-2,0 -1,2 -2,-1 -1,-3 -1,0 0,-2 3,2 1,-1 2,3zm-28 13l-2 -4c-6,-2 -6,-10 -6,-16 5,2 2,1 6,4 7,0 7,2 14,-1 3,2 1,-1 2,3 5,-1 2,-1 6,1 1,-3 -3,-1 2,-2 3,2 1,0 3,3l3 -1 4 0c4,1 4,0 8,0 11,-1 5,2 7,-4 -7,-6 -5,0 -16,-2 -3,0 2,0 -3,0 -4,0 -8,-1 -12,2 -12,-7 -3,-1 -17,-2l-5 -10c-3,-9 -5,-1 -3,-8 -5,4 0,4 -8,3 -1,-4 1,-2 1,-7 0,-12 -3,-4 3,-11 5,-5 1,1 2,-4 3,-8 4,-5 5,-13l-4 1c-1,2 -2,6 -2,7 -1,2 -4,4 -6,11 -2,4 -1,9 -2,16 10,5 5,6 10,21 2,6 2,10 10,13z"/>
   <path class="fil9" d="M29 499c-3,-5 0,-3 0,-4l2 1c7,3 -1,-4 2,1 2,3 -1,4 -1,4 -3,-1 -1,1 -3,-2zm-11 11l7 0c-1,-4 -1,-4 -1,-7 6,-3 0,0 4,0 1,1 3,0 6,1l2 -14c1,-5 3,-5 9,-5 -1,-4 -1,-4 2,-7l2 3 0 -2c3,-3 -1,-4 3,-1 3,2 1,0 3,3l0 -2 -1 -1c-6,-1 -2,2 -4,-3 4,-3 5,-3 9,-3 1,-7 2,-3 3,-4 2,1 3,1 5,2 -1,-3 -1,-1 0,-5l15 -1c-2,-3 -2,-1 -3,-5l8 -1c-9,-3 -5,-4 -14,-1 -9,3 -8,0 -11,9l-11 0c-4,6 -6,3 -11,13 -2,4 -1,4 -4,6l-2 1c-8,5 -7,1 -11,13 -2,5 -1,4 -4,6l-1 5z"/>
   <path class="fil10" d="M106 647l14 0c5,-1 9,1 13,-3 2,-1 1,-1 3,-2 3,-1 1,0 3,-1 3,-1 2,1 3,-2 -3,-8 -1,5 -4,-3 0,-1 0,-1 0,-1 -1,4 0,4 -5,4l-1 2c-3,-1 -3,-3 -6,1l-3 -15c0,0 -1,2 -1,3l0 4c-3,0 -2,0 -5,-1 2,3 2,3 4,5 -6,4 -2,1 -5,-2 -5,-5 -3,-2 -5,2l-4 -4c-1,6 2,4 -1,9 -7,-5 -1,-5 -6,-9 -2,-7 -3,-3 -6,-10l-4 -1c-2,5 -1,0 1,5l0 10c-1,5 -2,0 -1,6 1,0 5,0 7,0 6,0 1,0 6,-1 2,2 2,3 3,4z"/>
   <path class="fil11" d="M189 649l-1 0c4,2 1,-1 3,4l-9 -1c1,1 0,1 2,2 4,3 54,0 58,0 12,-1 21,0 31,1 6,0 25,0 30,-6l-6 2c-4,-6 -1,-3 -1,-4 -4,1 -7,2 -11,2 -5,1 -9,1 -14,1 -7,0 -17,-1 -27,-1 -3,3 -4,2 -12,3 -2,0 -6,1 -8,0 -4,0 -4,2 -4,-2 -6,1 -16,2 -22,0 -1,0 -4,2 -1,-4l-2 1c-4,2 1,1 -6,2z"/>
   <path class="fil12" d="M24 572c-2,5 0,0 -2,3 -1,2 -1,1 -1,4 -2,5 4,2 -4,6l0 3c2,1 1,0 3,3 1,1 1,2 2,3 2,4 2,3 3,6l12 -1c0,-8 2,-4 -2,-11 2,-3 -1,-1 4,-2l-2 -10c-4,0 0,0 -3,1 -6,2 3,0 -2,1 -3,-6 4,-1 0,-8 -4,-1 -5,0 -8,2z"/>
   <path class="fil13" d="M72 520c5,6 0,5 10,6 -4,4 -8,4 -14,5 -1,7 -2,1 -4,8 -1,4 1,8 0,13l3 -3c-1,-3 -1,-6 -2,-9 5,-4 5,-2 5,-8 5,3 6,-1 15,1l1 -5c5,1 4,2 7,3 0,0 1,0 1,0l10 0 3 -2 3 3c1,0 1,0 1,0 0,1 0,1 0,1 3,-2 4,-2 7,-3 4,-1 3,-1 7,-2 3,4 0,3 5,4 4,-2 2,1 3,-5l3 0 1 -4 -8 1 1 5c-5,-2 -1,1 -6,-4l-2 0c-2,3 2,0 -9,1 -6,0 -8,-1 -13,-2 -7,-1 -6,-1 -13,1 -6,2 -6,0 -12,-1l0 -5 -3 1z"/>
   <path class="fil12" d="M243 649l1 0c10,0 20,1 27,1 5,0 9,0 14,-1 4,0 7,-1 11,-2l5 -2c-2,-5 1,-1 5,-6 2,-4 -1,-3 2,-8 -4,2 -6,6 -7,9l-4 -5c-5,3 -5,2 -8,10 -3,-1 -2,-1 -6,-1l-7 3c-1,0 -1,3 -2,1 0,0 0,0 0,1 -4,-6 0,-5 -5,-9 -3,6 -2,-3 -5,6 -3,-4 1,-2 -3,-2 -6,0 0,0 -6,1 2,0 1,-2 0,-4l-4 2c-7,3 -6,2 -8,6z"/>
   <path class="fil3" d="M70 587l2 4c5,11 8,8 19,12 5,1 11,2 16,2 2,0 4,0 6,0 5,-1 2,1 7,-2 3,-6 0,-2 6,-6l0 -3c-10,1 -8,3 -10,4 -9,7 -19,-2 -27,2l-3 -6 -8 0 1 -4c-6,-3 -5,-2 -6,-4 -4,-5 0,-6 0,-6 3,-1 7,0 12,1l1 -4c-4,0 -4,-1 -7,-1 -2,0 -6,0 -8,0 -2,6 -2,5 -1,11z"/>
   <path class="fil14" d="M127 493l2 6c-6,0 -1,0 -3,-2 1,4 1,2 1,6l-6 0c5,7 23,8 23,8 5,3 -1,3 5,5l1 -3 11 2c-2,-3 -4,-11 -5,-16l-6 3c0,0 -1,0 -1,0l-3 2c0,0 -1,0 -1,0l-1 -2c0,4 1,5 -1,7 -5,-2 -3,-5 -3,-11 -13,7 -4,0 -8,-7 -8,0 -2,-1 -5,2z"/>
   <path class="fil15" d="M64 522l2 0c-1,8 -2,5 -5,13 -1,5 3,-1 -2,4 -6,7 -3,-1 -3,11 0,5 -2,3 -1,7 8,1 3,1 8,-3l1 -2c1,-5 -1,-9 0,-13 2,-7 3,-1 4,-8 6,-1 10,-1 14,-5 -10,-1 -5,0 -10,-6 -2,-5 -2,-1 -1,-6 -7,5 2,7 -7,8z"/>
   <path class="fil16" d="M267 584c4,0 11,-5 18,1 3,2 3,4 4,7 10,16 1,20 -2,25 -6,9 1,7 -18,7 2,5 9,4 14,2 3,-2 7,-6 9,-9 7,-12 5,-16 1,-29 -2,-2 -6,-7 -11,-9 -2,0 -7,-1 -10,0 -4,0 -4,1 -5,5z"/>
   <path class="fil15" d="M164 568l-3 5c-6,1 -13,-1 -16,-1 -5,0 -2,-2 -5,2 5,2 7,-1 7,4l2 -2c4,1 1,0 3,1l6 5c-1,2 -1,4 -2,7l-13 -4 -2 4c10,-1 7,2 10,7 4,6 0,1 4,4 1,-5 1,-9 2,-11l5 -9c0,0 1,-1 1,-1l10 -13c-7,1 -2,2 -9,2z"/>
   <path class="fil13" d="M118 504l0 3 4 1c2,2 2,2 6,5l2 1c2,-1 7,-3 8,2 6,0 11,3 10,10l-4 1 -1 2c-3,0 -5,-1 -7,-2 -1,5 -2,3 -3,8 10,-6 13,-3 21,-5 -1,-11 -3,-6 -5,-14 -6,-2 0,-2 -5,-5 0,0 -18,-1 -23,-8l-3 1z"/>
   <path class="fil6" d="M17 585c8,-4 2,-1 4,-6 0,-3 0,-2 1,-4 2,-3 0,2 2,-3l-1 -4c-4,2 -1,2 -5,3l-3 0c0,0 0,-1 0,-1 0,0 -1,-1 0,-1l2 -4c0,-1 0,-1 0,-2l-5 -1c0,-7 1,-8 -4,-10l0 -11c-4,2 -2,0 -2,7 -1,7 1,8 2,10 0,1 0,0 1,3 0,1 0,7 -1,9 3,5 2,-1 5,7 1,4 1,5 4,8z"/>
   <path class="fil17" d="M180 504l-1 5c-2,14 3,12 -3,13 -5,1 -3,1 -3,-2l0 3c0,0 0,0 0,1l2 6c3,-5 0,-4 7,-4 2,4 3,2 7,3 -2,-4 -3,-3 -5,-4l-3 -1c0,0 -1,-9 4,-11l5 -2c0,-8 -7,-18 -16,-21 0,0 1,0 1,1 0,2 1,1 1,4 0,0 -1,1 -1,2 4,2 -1,0 3,1 3,0 2,0 4,0l-2 6z"/>
   <path class="fil18" d="M147 578l-16 1c-2,2 0,2 -5,2 -5,0 -4,0 -6,-2l-2 0 2 3 12 1c1,1 1,-2 1,3l10 -1 13 4c1,-3 1,-5 2,-7l-6 -5c-2,-1 1,0 -3,-1l-2 2z"/>
   <path class="fil19" d="M178 547l1 -1c-4,-2 2,-1 -3,-1 -7,0 -1,3 -6,-1 -6,-3 -3,2 -4,6 -2,3 -2,2 -5,4l4 2 3 -6c2,0 6,0 7,0 3,1 0,2 4,1l4 -2c4,6 2,1 8,4l-5 2 5 0c3,-5 -2,-1 8,-9l-1 -4c-8,1 -2,0 -4,-1l-2 -7 -6 6c2,6 4,-1 4,8 -1,0 -4,1 -5,1 -1,0 -3,0 -3,0 -3,-1 -2,-1 -4,-2z"/>
   <path class="fil20" d="M219 587l10 -1c-1,14 -2,13 -1,28 0,0 1,3 1,3 0,2 -1,2 -1,3l-9 0 -1 0 0 2c8,-2 8,1 15,2l3 -1c-1,-4 -2,-4 -3,-7 0,-2 -1,-8 -1,-9 -1,-7 2,-14 2,-19l0 -5 -3 0c-6,4 -9,0 -12,4z"/>
   <path class="fil21" d="M269 624c-3,0 -5,-3 -8,-6l-3 -4c1,7 2,7 3,12 8,0 13,11 27,-1 7,-5 13,-15 10,-26 -3,-7 1,-6 -5,-11 4,13 6,17 -1,29 -2,3 -6,7 -9,9 -5,2 -12,3 -14,-2z"/>
   <path class="fil22" d="M110 627l2 4c-8,-2 -1,1 -7,0 -2,-4 -1,-1 -1,-7 -5,3 -4,1 -4,10 5,4 -1,4 6,9 3,-5 0,-3 1,-9l4 4c2,-4 0,-7 5,-2 3,3 -1,6 5,2 -2,-2 -2,-2 -4,-5l1 -3 4 0 0 -2c-3,-7 0,-5 -5,-7l-4 4c0,0 0,0 -1,1l-2 1z"/>
   <path class="fil21" d="M235 632c3,3 2,1 5,5 -4,6 -10,11 -20,13l0 0c0,4 0,2 4,2 2,1 6,0 8,0 8,-1 9,0 12,-3l-1 0 -8 0c0,0 1,-1 1,-1 0,0 1,0 1,-1l4 -2c10,-7 3,-14 -3,-17l2 5 -5 -1z"/>
   <path class="fil10" d="M197 646c-3,6 0,4 1,4 6,2 16,1 22,0l0 0 1 -2c1,0 1,-1 1,-1l0 -2c0,0 -1,0 -1,0 0,0 -1,0 -1,0 -3,0 -3,2 -4,3l-3 -8c-5,1 -4,4 -4,3 0,-1 -1,0 -1,1 -3,-5 -1,-4 -10,-4l-1 6z"/>
   <path class="fil23" d="M127 484c-3,9 1,-1 -4,8 1,0 1,0 1,1 2,4 2,0 3,0 3,-3 -3,-2 5,-2 4,7 -5,14 8,7 0,6 -2,9 3,11 2,-2 1,-3 1,-7 0,-8 2,-11 -7,-10 1,0 1,-1 1,-1l4 -6c-13,1 -7,2 -8,0 -1,4 1,1 -3,5l-2 -4c-1,-2 2,1 -2,-2z"/>
   <path class="fil6" d="M172 563c-1,3 -5,1 -7,1l-1 4c7,0 2,-1 9,-2l-10 13 -2 11 4 -2c0,1 0,0 0,0 0,0 0,0 0,0l2 -4c0,-1 0,-1 0,-1 2,-3 0,-5 5,-9 7,-5 0,-5 7,-7 5,-1 -1,3 4,0 3,-2 0,1 2,-2 2,-3 0,0 1,-4 -5,1 -6,3 -7,-1 -4,2 -3,1 -7,3z"/>
   <path class="fil24" d="M218 622l0 -2c-12,1 -7,7 -16,5 -5,-1 -2,0 -4,-2 -3,-3 0,-1 -2,-3 -1,0 -13,-6 -8,-22 1,-2 3,-5 4,-6 3,-4 4,-3 5,-7 -2,0 -4,-1 -7,5 -1,1 -3,6 -4,7 -2,6 -2,16 1,20 4,5 7,9 13,10 9,2 11,-3 18,-5z"/>
   <path class="fil24" d="M197 585c9,1 5,-3 15,2 5,3 6,3 13,3l1 26 -7 4 9 0c0,-1 1,-1 1,-3 0,0 -1,-3 -1,-3 -1,-15 0,-14 1,-28l-10 1 -1 1c-3,-4 -4,-5 -10,-6 -10,-1 -11,0 -11,3z"/>
   <path class="fil15" d="M87 506l-6 1c-2,6 -2,3 -6,7l1 4c4,-3 2,-2 6,-6 6,-5 24,-7 31,-4l5 -1 0 -3c-6,0 -8,-3 -14,-4 -1,3 3,1 -8,3l-9 3z"/>
   <path class="fil22" d="M165 556c4,6 3,2 3,9 3,-1 2,-1 4,-2 4,-2 3,-1 7,-3l0 -4c3,1 5,1 7,-1l5 -2c-6,-3 -4,2 -8,-4l-4 2c-4,1 -1,0 -4,-1 -1,0 -5,0 -7,0l-3 6z"/>
   <path class="fil10" d="M19 512c-1,5 -2,10 -3,15l8 4c1,-1 6,-1 1,-10 -3,3 -2,0 -3,5l-2 -2c3,-3 1,-2 5,-4l-2 -5 4 2c1,-5 2,-4 2,-5l1 -6c-10,3 4,0 -10,6 0,0 -1,0 -1,0z"/>
   <path class="fil12" d="M62 494c5,0 8,-2 12,-5 1,2 5,9 9,-3l-7 -2c0,-1 0,-1 0,-1 1,0 5,-2 7,-10l-10 2c0,0 2,0 2,3 -1,3 3,12 -6,11 -1,-1 -6,-9 -7,5z"/>
   <path class="fil19" d="M77 498l-2 5 -3 0c-5,-2 -1,2 -3,-2l2 7 -4 0c0,0 -1,-1 -1,-1 0,1 -2,4 -2,4 0,0 0,0 0,1l1 2c2,2 2,0 1,4 0,1 -1,2 -2,4 9,-1 0,-3 7,-8l4 0c4,-4 4,-1 6,-7 -11,1 -3,0 -6,-2 1,-8 0,-1 2,-4l2 0 1 -2 2 -6 -5 5z"/>
   <path class="fil18" d="M125 517l2 2c-2,2 -4,2 -5,6l2 0c-1,-6 0,-1 2,-3 3,2 0,0 3,2l8 -1 3 0c2,3 1,2 4,4l4 -1c1,-7 -4,-10 -10,-10 -3,3 -3,4 -7,4 -1,-3 -1,-2 -1,-6l-2 -1c-1,3 0,4 -3,4z"/>
   <path class="fil25" d="M71 640l15 4c-3,-6 -2,-1 -6,-7l6 -2c1,-1 1,-1 2,-4 -9,-4 -15,-1 -17,9z"/>
   <path class="fil9" d="M104 500c6,1 8,4 14,4l3 -1 6 0c0,-4 0,-2 -1,-6 -6,0 -9,1 -10,1 -1,0 -1,-2 -5,-1 0,0 0,1 0,1 -1,-4 -2,-4 -3,-8l-4 9c0,0 0,0 0,1z"/>
   <path class="fil12" d="M12 535c4,6 3,3 7,6 -5,8 -5,3 -8,1 1,5 0,1 0,4 0,0 -1,2 1,6l10 -2c-1,-3 -1,-2 -4,-3 7,-6 5,-8 5,-8l0 -1c0,-1 1,-1 1,-1l-12 -2z"/>
   <path class="fil12" d="M90 623l4 1c3,7 4,3 6,10 0,-9 -1,-7 4,-10 0,-3 -1,-1 2,-3l-4 -1c0,0 0,0 0,0 -4,-1 3,0 -3,0 -8,0 -6,-2 -8,-7 -2,2 -2,3 -3,5 2,2 1,2 3,3l-1 2z"/>
   <path class="fil6" d="M26 612c7,2 2,1 3,-2l-4 -10c-1,-3 -1,-2 -3,-6 -1,-1 -1,-2 -2,-3 -2,-3 -1,-2 -3,-3 1,9 4,17 9,24z"/>
   <path class="fil12" d="M34 525c3,-3 3,-5 7,-8l-5 -3c4,-6 0,2 5,-4 -3,-6 -2,-4 -7,-5 -2,5 -1,1 -2,7l0 2c-1,4 -1,2 1,5l1 4c0,0 0,1 0,1 0,0 0,1 0,1z"/>
   <path class="fil12" d="M164 568l1 -4c-3,-3 1,0 -3,-2 0,0 -2,-1 -3,-1l-2 5c-5,-1 -3,1 -4,-5 -5,2 -3,1 -6,1 -3,1 -3,1 -4,1 2,5 -1,2 3,4 6,3 9,-5 14,3 2,-4 2,-2 4,-2z"/>
   <path class="fil12" d="M107 466c-2,9 -1,2 2,5 6,-2 2,1 6,0 3,0 4,-3 5,-6 -3,-3 1,-1 -4,-1 -4,-1 0,1 -2,-2 -2,-3 1,-1 -3,-4 -3,6 1,8 -4,8z"/>
   <path class="fil14" d="M194 579l17 -1c-1,-3 2,-3 -2,-3 1,-8 6,2 1,-8 -5,5 -4,-1 -7,8 -12,0 -8,1 -9,4z"/>
   <path class="fil10" d="M154 636c1,-2 -1,-1 1,-2l-1 0c-9,-3 1,2 -5,-3 1,-2 2,-3 3,-6l-9 4c-2,-1 -1,-2 -5,-4 1,10 1,7 8,9 4,2 1,2 5,2 4,1 -2,-2 3,0z"/>
   <path class="fil3" d="M194 514c3,-3 2,-2 4,-3l0 4 2 0 -1 0 0 -4c-4,-4 -1,-1 -3,-5 -1,-4 -1,-1 -3,-6l0 -3 -4 -1 -2 5c5,5 0,5 7,8l0 5z"/>
   <path class="fil26" d="M70 587c-1,-6 -1,-5 1,-11 2,0 6,0 8,0 3,0 3,1 7,1l0 0c-1,-4 1,-1 -2,-3 -7,3 -7,1 -14,1 -4,-3 -1,-2 -6,-4 0,6 0,14 6,16z"/>
   <path class="fil10" d="M49 481l1 7c-3,1 0,0 -3,0l-3 -1 1 11c7,-4 2,-2 9,-2 0,0 0,0 1,-1l-5 -3c2,-6 2,-6 3,-12l-4 1z"/>
   <path class="fil12" d="M43 586l5 -5c5,-1 5,1 7,-3 0,0 0,-1 0,-1 -3,-3 0,-5 -8,3 -2,-2 -2,-3 -5,-5 -3,3 -3,1 -2,5l3 6z"/>
   <path class="fil21" d="M126 594l0 3c-6,4 -3,0 -6,6 4,-2 7,-3 11,-3 1,-12 2,-9 10,-11l-8 1 0 -4c-7,4 -4,6 -7,8z"/>
   <path class="fil27" d="M41 635c7,1 1,1 4,-2l-4 -3c-2,-1 -1,3 -3,-5l-4 -1 0 -4c-3,-1 -1,0 -5,0 1,5 1,5 5,8 4,3 3,3 7,7z"/>
   <path class="fil10" d="M127 484c4,3 1,0 2,2l2 4c4,-4 2,-1 3,-5 -4,-3 -3,2 -3,-5 10,1 7,6 13,0l-2 -1c-10,-2 -9,-2 -13,2 -3,3 -2,1 -2,3z"/>
   <path class="fil10" d="M55 623c5,-2 6,-2 5,-8 -10,-2 2,0 -6,1 0,0 0,-2 -5,1 0,5 2,5 6,6z"/>
   <path class="fil9" d="M34 620l0 4 4 1c2,1 1,1 2,2 2,1 0,0 2,2l4 -1c-1,-5 1,-1 -3,-4 -2,-2 -1,-1 -2,-2l-2 -1 -1 -2 -5 -3 1 4z"/>
   <path class="fil12" d="M139 618c-8,3 -6,0 -14,-1 0,5 3,9 3,9 0,0 0,1 0,1l3 -6 8 3 0 -6z"/>
   <path class="fil11" d="M226 556c-4,-5 -8,-4 -18,-5 -4,-5 1,-2 -5,-6l1 8 22 3z"/>
   <path class="fil10" d="M28 550c3,2 0,2 5,0l0 6 8 -1c-5,-8 -2,-1 -6,-4 -4,-4 2,-6 -6,-7l-1 6z"/>
   <path class="fil10" d="M38 619l1 2 4 0c1,-5 0,-3 3,-7l-4 -2c0,-4 1,-4 -1,-7 -3,4 -1,0 -2,7 0,4 0,2 -1,7z"/>
   <path class="fil7" d="M87 506l9 -3c11,-2 7,0 8,-3 -5,-1 -1,0 -4,-2l-5 3c-1,0 -1,-1 -1,-1 -1,1 -1,-1 -2,-1 -1,-2 0,-1 -1,-3l-4 10z"/>
   <path class="fil12" d="M98 476c3,3 3,2 7,5 0,0 2,2 3,3 1,1 0,1 3,2 2,-7 0,-5 -4,-8 -3,-2 -3,-4 -6,-4 -6,1 0,0 -3,2z"/>
   <path class="fil12" d="M155 560l4 0 1 -4c-3,-3 -4,-5 -7,-4 -7,1 -2,1 -4,2 1,3 0,1 2,3l3 2c0,1 0,1 1,1z"/>
   <path class="fil24" d="M85 581c8,0 11,3 20,-1l-1 -2 -4 0 -3 1c-3,1 -6,2 -5,-1 -4,-2 -1,-2 -6,-1l0 0 -1 4z"/>
   <path class="fil10" d="M124 469c-6,1 -5,1 -6,7 3,2 4,3 8,3l-2 -10z"/>
   <path class="fil18" d="M79 590l-3 -6 5 -2c0,0 1,0 1,0 0,0 1,0 1,0 2,-1 2,-1 2,-1 -5,-1 -9,-2 -12,-1 0,0 -4,1 0,6 1,2 0,1 6,4z"/>
   <path class="fil13" d="M231 583l3 0 0 5c3,-3 1,-2 4,-2 0,-6 2,-8 3,-13 -4,0 -2,1 -5,5 -2,3 -3,2 -5,5z"/>
   <path class="fil10" d="M46 508l7 -1c-2,5 -1,5 5,4l-5 -10c-2,1 -4,-1 -7,7z"/>
   <path class="fil20" d="M157 641c16,-7 8,2 19,5 1,-5 -2,-5 -4,-7 -3,-2 -3,-3 -5,-5 -2,3 1,0 -4,3 -7,4 3,-2 -3,2 0,0 -3,2 -3,2z"/>
   <path class="fil28" d="M176 479l-1 -4c-10,-5 -3,-5 -14,-11l-3 -1c2,6 4,2 9,9 3,4 0,0 6,5 0,0 1,0 1,1l2 1z"/>
   <path class="fil10" d="M104 531l-3 4c-6,0 -6,-6 -8,5 8,-2 11,-1 14,-8 -2,-2 0,-1 -3,-1z"/>
   <path class="fil27" d="M178 648l4 4 9 1c-2,-5 1,-2 -3,-4l-5 -1c-2,-3 -1,-3 -6,-4 1,3 0,2 1,4z"/>
   <path class="fil11" d="M113 508c2,2 0,1 3,2 2,1 0,0 4,1 3,1 3,3 5,6 3,0 2,-1 3,-4 -4,-3 -4,-3 -6,-5l-4 -1 -5 1z"/>
   <path class="fil29" d="M26 612c-2,2 2,2 -4,1 2,2 2,2 4,3 2,2 2,1 3,4 4,0 2,-1 5,0l-1 -4c0,0 -1,-1 -1,-1 0,0 0,-1 0,-2 -1,-1 0,-1 -3,-3 -1,3 4,4 -3,2z"/>
   <path class="fil10" d="M189 649c7,-1 2,0 6,-2 -1,-5 1,-2 -2,-5l-8 1c1,3 3,4 4,6z"/>
   <path class="fil30" d="M120 579c2,2 1,2 6,2 5,0 3,0 5,-2 1,-5 1,-2 -2,-3 -2,0 -6,0 -7,0 -2,2 -1,0 -2,3z"/>
   <path class="fil10" d="M80 499l-1 2 -2 0c-1,9 0,2 2,5 7,-5 6,0 8,-7 -1,0 -3,-1 -3,-1 -4,0 -1,-1 -4,1z"/>
   <path class="fil10" d="M179 546l-1 1 6 1c0,-8 1,-8 -6,-9 -1,5 -1,3 1,7z"/>
   <path class="fil28" d="M15 501l3 -2c1,-5 4,-9 7,-13 3,-2 0,1 2,-1 2,-2 1,-1 2,-3 -5,1 -1,-1 -5,3l-7 9c-1,1 -1,5 -2,7z"/>
   <path class="fil27" d="M130 514c0,4 0,3 1,6 4,0 4,-1 7,-4 -1,-5 -6,-3 -8,-2z"/>
   <path class="fil10" d="M129 613c2,2 -2,1 2,3 6,2 8,-3 8,-4 -6,-4 -8,-1 -10,1z"/>
   <path class="fil31" d="M72 642l-1 -2c-3,0 0,0 -3,0l-3 5c6,3 3,3 9,2l-2 -5z"/>
   <path class="fil10" d="M104 624c0,6 -1,3 1,7 6,1 -1,-2 7,0l-2 -4c-4,-4 -1,-1 -2,-3 -2,-3 1,-1 -2,-3 -3,2 -2,0 -2,3z"/>
   <path class="fil10" d="M67 480c3,-6 -2,-9 -3,-9 0,1 -4,-4 -1,6 2,7 1,2 4,3z"/>
   <polygon class="fil15" points="233,624 233,629 235,632 240,633 238,628 236,623 "/>
   <path class="fil12" d="M292 636c0,-3 0,-3 1,-6l-4 -1c-2,7 1,2 -3,5 -2,2 -1,0 -2,3 3,1 4,0 8,-1z"/>
   <path class="fil32" d="M312 563c-4,-2 -3,-2 -6,-5l-5 0c0,-1 0,0 -1,0l10 9c3,-2 1,1 2,-4z"/>
   <path class="fil19" d="M56 632l0 4c1,0 3,2 3,2 3,2 0,0 4,2 -1,-5 -1,-3 0,-8 0,0 -1,1 -1,1 -1,0 -1,0 -1,0l-5 -1z"/>
   <path class="fil21" d="M141 646c6,1 3,1 8,0l1 -3c0,-5 0,0 0,-4 -1,0 -1,0 -1,0l-8 7z"/>
   <path class="fil10" d="M140 558c2,-3 3,-1 2,-8 -2,1 -4,0 -5,3 -1,6 1,4 3,5z"/>
   <path class="fil30" d="M147 578c0,-5 -2,-2 -7,-4 -4,2 -1,-1 -2,5l9 -1z"/>
   <polygon class="fil33" points="141,589 143,585 133,586 133,590 "/>
   <path class="fil3" d="M136 527c2,1 4,2 7,2l1 -2c-3,-2 -2,-1 -4,-4l-3 0 -1 4z"/>
   <path class="fil10" d="M41 528c4,-2 2,2 3,-4 1,-8 0,-2 -2,-4 -3,2 -2,0 -3,3 -1,8 0,2 2,5z"/>
   <path class="fil10" d="M146 490c0,0 -1,3 4,0 3,-3 1,-2 3,-5l-7 -1 0 6z"/>
   <path class="fil12" d="M45 529c4,3 1,2 6,3 1,-1 2,-1 0,-6 -5,0 -4,-1 -6,3z"/>
   <path class="fil34" d="M199 515c1,0 6,1 0,-9l-6 -6c2,5 2,2 3,6 2,4 -1,1 3,5l0 4z"/>
   <path class="fil10" d="M175 544l0 -5c0,0 -4,-3 -5,1 0,0 0,1 0,1 0,6 4,3 5,3z"/>
   <path class="fil12" d="M179 509l1 -5 -6 0c1,6 0,6 5,5z"/>
   <path class="fil10" d="M72 503l3 0 2 -5 0 -3c-2,2 -1,1 -3,2 -1,1 -2,1 -3,1l1 5z"/>
   <path class="fil10" d="M167 505c5,-3 6,-3 8,-8 -1,0 -1,0 -2,0 0,1 -1,1 -1,1 -6,3 -5,4 -5,7z"/>
   <path class="fil35" d="M133 639c5,0 4,0 5,-4 -2,-3 1,-1 -3,-3 -2,2 -1,-1 -2,4 -2,4 0,3 0,3z"/>
   <path class="fil36" d="M153 561c1,6 -1,4 4,5l2 -5 0 -1 -4 0c-1,3 0,1 -2,1z"/>
   <path class="fil33" d="M124 525c5,5 1,2 6,4l-1 -5c-3,-2 0,0 -3,-2 -2,2 -3,-3 -2,3z"/>
   <path class="fil32" d="M72 520l3 -1 1 -1 -1 -4 -4 0c-1,5 -1,1 1,6z"/>
   <path class="fil10" d="M106 553c6,-1 5,2 6,-6 -4,0 -5,1 -6,6z"/>
   <path class="fil10" d="M107 610c2,6 0,4 4,7 4,-6 2,-2 2,-5l-6 -2z"/>
   <path class="fil10" d="M54 478l1 1c5,0 2,1 5,-1 -1,-5 0,-2 -3,-5 -4,3 -2,0 -3,5z"/>
   <path class="fil10" d="M149 480c2,2 -2,2 3,1 4,-1 2,-1 3,-3 -1,0 1,-2 -3,-1 -4,0 -2,-1 -3,3z"/>
   <path class="fil25" d="M53 608c5,-7 0,-6 0,-6 -4,2 -4,-2 -3,3 0,2 2,2 3,3z"/>
   <path class="fil10" d="M65 514c-9,0 -3,0 -5,2 2,3 0,2 4,4l1 -6z"/>
   <path class="fil23" d="M29 495c0,1 -3,-1 0,4 2,3 0,1 3,2 0,0 3,-1 1,-4 -3,-5 5,2 -2,-1l-2 -1z"/>
   <path class="fil37" d="M29 482l4 0c1,-3 2,-4 3,-7 -7,3 -2,1 -7,7z"/>
   <path class="fil35" d="M68 631c-5,1 -3,1 -2,5 5,-2 2,1 3,-2 3,-5 0,-3 -1,-3z"/>
   <path class="fil38" d="M117 633c3,1 2,1 5,1l0 -4 -4 0 -1 3z"/>
   <path class="fil39" d="M194 514c-2,3 -1,1 0,3 5,-1 2,0 4,-2l0 -4c-2,1 -1,0 -4,3z"/>
   <path class="fil30" d="M97 579c-2,-3 0,-1 -3,-3 -5,1 -1,-1 -2,2 -1,3 2,2 5,1z"/>
   <path class="fil35" d="M23 560c-1,-7 2,-4 -5,-5 2,4 1,4 5,5z"/>
   <path class="fil39" d="M15 501l0 3c7,-2 2,0 4,-3l-4 0z"/>
   <path class="fil40" d="M213 475l6 -6c-6,2 -4,0 -6,6z"/>
   <path class="fil30" d="M100 578c-1,-4 1,-1 -2,-3 -1,2 -1,-1 0,2 1,3 0,1 2,1z"/>
  </g>
 </g>
</svg>
