<?xml version="1.0" encoding="UTF-8"?>
<!DOCTYPE svg PUBLIC "-//W3C//DTD SVG 1.1//EN" "http://www.w3.org/Graphics/SVG/1.1/DTD/svg11.dtd">
<!-- Creator: CorelDRAW X7 -->
<svg xmlns="http://www.w3.org/2000/svg" xml:space="preserve" width="21.7651mm" height="17.0495mm" version="1.1" style="shape-rendering:geometricPrecision; text-rendering:geometricPrecision; image-rendering:optimizeQuality; fill-rule:evenodd; clip-rule:evenodd"
viewBox="0 0 349 273"
 xmlns:xlink="http://www.w3.org/1999/xlink">
 <defs>
  <style type="text/css">
   <![CDATA[
    .fil2 {fill:#0B6CA4}
    .fil11 {fill:#0B72A5}
    .fil10 {fill:#166998}
    .fil6 {fill:#16749A}
    .fil3 {fill:#287599}
    .fil12 {fill:#358BB8}
    .fil8 {fill:#367898}
    .fil15 {fill:#469BC5}
    .fil7 {fill:#4F92B3}
    .fil13 {fill:#5077A6}
    .fil17 {fill:#51AAD0}
    .fil16 {fill:#61A6D9}
    .fil5 {fill:#6D93AF}
    .fil9 {fill:#90B3D3}
    .fil4 {fill:#99C7D8}
    .fil0 {fill:#A8C7D8}
    .fil1 {fill:#B8C7D9}
    .fil14 {fill:#CFD1D0}
   ]]>
  </style>
 </defs>
 <g id="Слой_x0020_1">
  <metadata id="CorelCorpID_0Corel-Layer"/>
  <path class="fil0" d="M53 219c4,8 1,6 0,7l-4 0c-2,0 -1,-1 -2,-1 0,-4 -1,-4 1,-6 3,-3 5,0 5,0zm-10 21c1,-2 2,-4 3,-7l4 -5 0 35c0,10 -1,7 6,8 1,-10 2,-47 0,-55 -5,-1 -4,-1 -10,0 -5,6 -6,16 -10,22l-4 13c-2,4 -1,2 -3,3 -3,-2 -4,-6 -5,-11 -3,-9 -7,-22 -12,-28 -17,-2 -11,6 -11,45 0,6 -2,11 4,11 10,1 -1,-26 5,-38 8,9 9,31 17,38l5 0c2,-4 12,-27 11,-31z"/>
  <path class="fil1" d="M49 130l-2 -7 -5 -5c-5,0 -3,-2 -9,-1 -2,13 0,26 -1,38 -1,15 0,10 2,12 6,-2 3,5 4,-6 1,-6 -2,-20 1,-21l1 -12 12 37 4 6 6 0 7 -17 10 -22c2,10 -2,36 2,39 9,5 6,-22 6,-36 0,-4 1,-13 0,-15 -1,-6 -4,-5 -11,-4 -2,1 -10,24 -12,29 -1,2 -1,4 -2,5l-3 5c-4,-4 -8,-18 -10,-25z"/>
  <path class="fil0" d="M144 157c-5,-6 -4,-34 7,-33 2,-2 -2,-2 5,-3 13,0 15,16 14,27 -2,20 -23,21 -26,9zm-12 -6c3,14 13,26 30,21 15,-5 18,-20 17,-36 -3,-36 -55,-28 -47,15z"/>
  <path class="fil0" d="M324 155c-3,13 -24,14 -26,-4 -3,-14 1,-32 17,-29 13,3 13,23 9,33zm-5 17l4 -2c2,-2 2,-2 4,-3 7,-7 9,-20 8,-30 -2,-18 -10,-24 -29,-23 -15,4 -19,19 -17,36 0,8 3,14 8,18 7,6 13,3 22,4z"/>
  <path class="fil0" d="M323 239l1 -5 1 -7c5,2 3,0 4,7l0 5c3,2 2,-2 4,4 1,3 0,4 0,6l-13 1c0,-5 -1,-2 0,-7l3 -4zm-17 24l-1 8 8 0 0 0 4 -14 19 0 3 10 3 4 7 0c1,-10 -13,-38 -16,-49 -1,-1 0,1 -3,-3 -1,-3 0,-1 -1,-4l-7 0c-3,8 -6,16 -8,24 -3,7 -5,19 -8,24z"/>
  <path class="fil0" d="M94 39c1,-4 0,-4 3,-7 0,-5 -1,-5 3,-8l1 6c2,2 2,-1 3,5 1,3 0,1 1,4 3,4 2,3 1,7 -4,1 -10,2 -14,-1 0,-1 -2,-1 2,-6zm-8 28l4 -14 19 0c2,3 3,7 4,12 2,3 2,3 8,3 1,-7 -15,-52 -18,-57l-5 0c-2,3 -14,33 -17,41l-3 12c0,5 6,3 8,3z"/>
  <path class="fil2" d="M298 151c5,5 9,18 22,6 3,-2 2,-1 4,-2 4,-10 4,-30 -9,-33 -16,-3 -20,15 -17,29z"/>
  <path class="fil0" d="M190 62c3,4 1,4 8,4l-3 -13c-1,-7 -5,-9 -8,-15 4,-6 11,-18 10,-27 -17,-1 -3,24 -24,24l-1 -23 -5 0c-3,6 -1,32 -2,43 0,12 0,10 4,12 5,-2 3,4 4,-6 0,-4 -2,-13 1,-18l7 -1c2,3 9,16 9,20z"/>
  <path class="fil2" d="M144 157c1,0 1,0 1,1 4,2 5,4 11,3 18,-1 9,-33 9,-33 -4,-3 -7,-4 -14,-4 -11,-1 -12,27 -7,33z"/>
  <path class="fil0" d="M161 260l3 5c14,12 34,8 32,-6 -7,1 -13,7 -21,3 -10,-6 -10,-33 1,-39 9,-5 12,3 20,3l0 -6c-4,-4 -10,-6 -17,-6 -23,2 -20,30 -18,46z"/>
  <path class="fil0" d="M276 56c-6,1 -27,15 -28,-17 0,-8 2,-16 7,-19 8,-4 14,1 21,2 1,-17 -20,-12 -25,-9 -14,8 -15,45 0,53 3,2 26,7 25,-10z"/>
  <path class="fil0" d="M232 135c0,-22 5,-8 18,-13 4,-1 4,-6 -1,-7 -2,-1 -12,-1 -15,-1 -15,0 -11,6 -11,21l1 36c7,2 8,1 8,-6l0 -30z"/>
  <path class="fil3" d="M49 130c2,7 6,21 10,25l3 -5c1,-1 1,-3 2,-5 2,-5 10,-28 12,-29 7,-1 10,-2 11,4 1,2 0,11 0,15 0,14 3,41 -6,36 -4,-3 0,-29 -2,-39l-10 22c4,-4 3,4 3,-4 4,-4 -4,5 2,-2 3,-4 -1,-1 1,-1 0,0 0,0 1,1 0,0 0,0 0,1l0 14c-1,5 0,7 3,10 8,1 9,1 11,-6 2,-6 1,-9 1,-16 -1,-7 1,-30 -1,-34 -2,-4 -13,-11 -21,4 -2,4 -2,8 -4,14 -2,9 -5,9 -8,9l-4 -11c-2,-4 1,-2 -4,-3z"/>
  <path class="fil1" d="M13 19l9 0 1 49 7 -2c-2,-8 -2,-39 1,-47 4,-2 4,-1 7,-1 10,-1 4,1 7,-3 -3,-3 -2,-3 -8,-3 -2,0 -6,0 -8,0 -6,0 -11,-1 -16,1l-1 2c0,1 0,2 1,4z"/>
  <path class="fil1" d="M259 222l14 0 -1 -6c-7,0 -14,0 -21,0 -7,0 -17,-3 -16,4 1,1 0,1 4,1 4,1 5,0 11,1 1,15 -2,42 2,49 7,-2 4,-2 4,-21 0,-11 -1,-23 3,-28z"/>
  <path class="fil4" d="M321 11c-1,8 0,23 0,32 0,23 -3,26 7,24l1 -48c0,-8 0,-9 -8,-8z"/>
  <path class="fil5" d="M259 222c-4,5 -3,17 -3,28 0,19 3,19 -4,21 -4,-7 -1,-34 -2,-49 -6,-1 -7,0 -11,-1 -4,0 -3,0 -4,-1 -1,-7 9,-4 16,-4 7,0 14,0 21,0 -6,-5 -34,-3 -39,-1l0 8 14 1c6,18 -8,50 9,49 5,-10 3,-37 3,-51z"/>
  <path class="fil3" d="M52 165l-12 -37 -1 12c1,8 1,24 -1,31l-6 0c-2,-6 -2,-44 -1,-54 -2,2 -2,0 -3,3 0,2 0,4 0,5l0 29c1,4 -7,25 14,19 1,-8 -1,-15 0,-24l7 12c1,8 0,1 3,4z"/>
  <path class="fil1" d="M112 270l0 0 1 -44c0,-14 -1,-9 -4,-11 -3,2 -2,-1 -3,6l0 22c0,8 -1,21 1,27l5 0z"/>
  <path class="fil6" d="M30 66l-7 2 -1 -49 -9 0c-3,-1 -3,0 -4,-2l0 -7c-4,5 -4,9 -5,16 14,3 -3,-5 15,-4 -4,2 -1,-1 -1,5 0,7 1,41 -2,42l15 2 -1 -5z"/>
  <path class="fil7" d="M9 10l0 7c1,2 1,1 4,2 -1,-2 -1,-3 -1,-4l1 -2c5,-2 10,-1 16,-1 2,0 6,0 8,0 6,0 5,0 8,3 -3,4 3,2 -7,3 -3,0 -3,-1 -7,1 -3,8 -3,39 -1,47 5,-7 1,-34 2,-45l14 -1 1 -8c-10,-4 -23,-3 -33,-3 2,1 0,2 2,-3 1,-3 2,-3 2,-6 -5,2 -4,6 -9,10z"/>
  <path class="fil5" d="M112 270l-5 0c-2,-6 -1,-19 -1,-27l0 -22c1,-7 0,-4 3,-6 3,2 4,-3 4,11l-1 44c1,-1 1,0 2,-2l1 -10c0,-10 1,-38 -1,-44l-9 0c0,1 -7,76 7,56z"/>
  <path class="fil3" d="M319 172c16,0 21,-21 19,-37 -3,-14 -9,-25 -25,-23l-7 2c19,-1 27,5 29,23 1,10 -1,23 -8,30 -2,1 -2,1 -4,3l-4 2z"/>
  <path class="fil5" d="M43 240c3,-2 4,-2 5,-6 1,12 -2,27 1,38l8 0c2,-7 3,-51 -1,-57 -2,-1 -2,-2 -5,-2 -9,1 -2,1 -5,3 6,-1 5,-1 10,0 2,8 1,45 0,55 -7,-1 -6,2 -6,-8l0 -35 -4 5c-1,3 -2,5 -3,7z"/>
  <path class="fil8" d="M144 157c3,12 24,11 26,-9 1,-11 -1,-27 -14,-27 -7,1 -3,1 -5,3 7,0 10,1 14,4 0,0 9,32 -9,33 -6,1 -7,-1 -11,-3 0,-1 0,-1 -1,-1z"/>
  <path class="fil9" d="M31 117c-1,10 -1,48 1,54l6 0c2,-7 2,-23 1,-31 -3,1 0,15 -1,21 -1,11 2,4 -4,6 -2,-2 -3,3 -2,-12 1,-12 -1,-25 1,-38 6,-1 4,1 9,1 -3,-4 -4,-4 -9,-3l-2 2z"/>
  <path class="fil3" d="M86 67c9,-4 4,-5 8,-11l14 0c3,8 -1,9 5,9 -1,-5 -2,-9 -4,-12l-19 0 -4 14z"/>
  <path class="fil3" d="M313 271c6,-3 5,-4 6,-11l15 0c1,2 0,2 2,4 1,2 0,1 3,3l-3 -10 -19 0 -4 14z"/>
  <path class="fil10" d="M324 234l-1 5 -1 9 8 -1c0,-1 1,0 1,-4 0,0 -1,-4 -2,-4l0 -5c-2,-2 -1,4 -2,-4l-2 2c0,0 0,1 -1,1 0,-1 0,0 0,1z"/>
  <path class="fil11" d="M97 32c-1,5 -2,8 -1,11l5 1c3,-7 1,-6 0,-14l-1 -6c-4,3 -3,3 -3,8z"/>
  <path class="fil8" d="M324 155c-2,1 -1,0 -4,2 -13,12 -17,-1 -22,-6 2,18 23,17 26,4z"/>
  <path class="fil8" d="M24 243c1,5 2,9 5,11 2,-1 1,1 3,-3l4 -13c0,0 0,0 -1,1l-4 6 -7 -2z"/>
  <path class="fil8" d="M97 32c-3,3 -2,3 -3,7l-1 6 13 0 -1 -6c-1,-3 0,-1 -1,-4 -1,-6 -1,-3 -3,-5 1,8 3,7 0,14l-5 -1c-1,-3 0,-6 1,-11z"/>
  <path class="fil12" d="M37 77c2,-2 1,-1 3,-5l1 -12c-6,1 -5,2 -6,7 -1,6 -3,5 2,10z"/>
  <path class="fil13" d="M329 239c1,0 2,4 2,4 0,4 -1,3 -1,4l-8 1 1 -9 -3 4c-1,5 0,2 0,7l13 -1c0,-2 1,-3 0,-6 -2,-6 -1,-2 -4,-4z"/>
  <path class="fil14" d="M47 225c1,0 0,1 2,1l4 0c1,-1 4,1 0,-7 0,0 -2,-3 -5,0 -2,2 -1,2 -1,6z"/>
  <path class="fil15" d="M190 62l1 6c7,0 9,0 9,-5 0,-5 -3,-8 -5,-10l3 13c-7,0 -5,0 -8,-4z"/>
  <path class="fil5" d="M94 39c-4,5 -2,5 -2,6 4,3 10,2 14,1 1,-4 2,-3 -1,-7l1 6 -13 0 1 -6z"/>
  <path class="fil5" d="M324 234c0,-1 0,-2 0,-1 1,0 1,-1 1,-1l2 -2c1,8 0,2 2,4 -1,-7 1,-5 -4,-7l-1 7z"/>
  <path class="fil7" d="M47 123c-1,-4 -1,-6 -5,-5l5 5z"/>
  <path class="fil16" d="M26 112c-5,1 -1,-1 -4,5 4,-3 3,1 4,-5z"/>
  <path class="fil17" d="M333 222l-1 -3c-1,-5 1,-2 -3,-4 1,3 0,1 1,4 3,4 2,2 3,3z"/>
  <polygon class="fil7" points="164,265 161,260 "/>
 </g>
</svg>
