<?xml version="1.0" encoding="UTF-8"?>
<!DOCTYPE svg PUBLIC "-//W3C//DTD SVG 1.1//EN" "http://www.w3.org/Graphics/SVG/1.1/DTD/svg11.dtd">
<!-- Creator: CorelDRAW X7 -->
<svg xmlns="http://www.w3.org/2000/svg" xml:space="preserve" width="13.1515mm" height="13.1435mm" version="1.1" style="shape-rendering:geometricPrecision; text-rendering:geometricPrecision; image-rendering:optimizeQuality; fill-rule:evenodd; clip-rule:evenodd"
viewBox="0 0 1823 1822"
 xmlns:xlink="http://www.w3.org/1999/xlink">
 <defs>
  <style type="text/css">
   <![CDATA[
    .fil4 {fill:#0179BF}
    .fil5 {fill:#047BC0}
    .fil1 {fill:#C6E1F0}
    .fil2 {fill:#CDE4F2}
    .fil3 {fill:#DFEEF7}
    .fil0 {fill:#FEFEFE}
   ]]>
  </style>
 </defs>
 <g id="Слой_x0020_1">
  <metadata id="CorelCorpID_0Corel-Layer"/>
  <g id="_673841312">
   <path class="fil0" d="M944 1423l12 83c-125,18 -125,-94 -12,-83zm479 -752c-94,42 -142,-94 12,-77l-12 77zm-947 0c-95,42 -148,-88 6,-77l-6 77zm414 267c-71,-42 -159,-59 -242,-207 -249,-427 331,-806 562,-444 172,266 -166,538 -367,325 -71,-83 -136,-272 71,-266 160,6 190,100 237,225 172,-225 -142,-504 -397,-302 -213,171 -95,527 142,604 107,-36 160,-101 302,-101 379,6 527,421 308,628 -154,142 -438,83 -473,-125 -42,-236 219,-367 396,-201 12,190 -142,249 -325,219 94,267 515,107 444,-207 -54,-231 -314,-338 -604,-178 12,261 -71,427 -261,504 -231,94 -432,-48 -479,-214 -72,-231 148,-450 355,-355 189,83 195,361 -42,438 -65,-29 -118,-94 -124,-189 0,-107 59,-148 95,-219 -350,18 -290,426 -48,497 273,83 486,-166 450,-432zm-888 41c36,486 444,871 971,841 468,-23 889,-444 847,-977 -41,-491 -450,-876 -983,-841 -462,36 -870,456 -835,977l0 0z"/>
   <path class="fil1" d="M1133 1187c18,-83 89,-113 190,-83 23,106 -113,142 -190,83zm-41 29c136,89 272,24 290,-124 -124,-71 -308,-48 -290,124z"/>
   <path class="fil2" d="M873 440c124,-5 183,36 171,154 -118,6 -160,-29 -171,-154zm201 184c53,-160 -83,-243 -237,-219 -24,166 77,249 237,219z"/>
   <path class="fil3" d="M535 1175c-101,-77 -47,-178 42,-213 47,94 47,159 -42,213zm-18 47c166,-47 131,-172 77,-308 -160,24 -189,196 -77,308z"/>
   <path class="fil4" d="M1044 594c12,-118 -47,-159 -171,-154 11,125 53,160 171,154z"/>
   <path class="fil4" d="M535 1175c89,-54 89,-119 42,-213 -89,35 -143,136 -42,213z"/>
   <path class="fil5" d="M1133 1187c77,59 213,23 190,-83 -101,-30 -172,0 -190,83z"/>
  </g>
 </g>
</svg>
