<?xml version="1.0" encoding="UTF-8"?>
<!DOCTYPE svg PUBLIC "-//W3C//DTD SVG 1.1//EN" "http://www.w3.org/Graphics/SVG/1.1/DTD/svg11.dtd">
<!-- Creator: CorelDRAW X7 -->
<svg xmlns="http://www.w3.org/2000/svg" xml:space="preserve" width="33.7444mm" height="122.743mm" version="1.1" style="shape-rendering:geometricPrecision; text-rendering:geometricPrecision; image-rendering:optimizeQuality; fill-rule:evenodd; clip-rule:evenodd"
viewBox="0 0 328 1191"
 xmlns:xlink="http://www.w3.org/1999/xlink">
 <defs>
  <style type="text/css">
   <![CDATA[
    .fil4 {fill:#0179BF}
    .fil5 {fill:#047BC0}
    .fil1 {fill:#C6E1F0}
    .fil2 {fill:#CDE4F2}
    .fil3 {fill:#DFEEF7}
    .fil0 {fill:#FEFEFE}
   ]]>
  </style>
 </defs>
 <g id="Слой_x0020_1">
  <metadata id="CorelCorpID_0Corel-Layer"/>
  <path class="fil0" d="M294 181c3,-40 3,-39 3,-108 -2,-21 17,-78 -59,-72 -33,2 -38,18 -56,29 -14,-40 -65,-39 -104,-5l-2 -21 -46 1 0 176 47 -1 1 -121c12,-10 21,-19 47,-16 31,19 9,99 16,138l45 0 2 -121c10,-9 26,-23 47,-16 27,11 9,87 16,137l43 0z"/>
  <path class="fil0" d="M148 1051c65,-24 83,81 29,98 -60,19 -82,-79 -29,-98zm-78 56c9,119 194,111 187,-14 -6,-121 -196,-115 -187,14z"/>
  <path class="fil0" d="M125 659c0,-50 82,-54 84,0l-84 0zm129 31c11,-88 -71,-127 -129,-98 -53,27 -51,46 -52,81 -1,35 -2,53 40,80 34,22 99,20 127,-8 -11,-23 -48,-12 -72,-14 -23,-1 -41,-17 -43,-40l129 -1z"/>
  <path class="fil0" d="M245 826c-27,-54 -167,-45 -162,65 4,108 146,105 162,55 -30,-25 -62,5 -94,-16 -28,-19 -29,-81 13,-93 28,-7 39,4 53,15l28 -26z"/>
  <g id="_671864800">
   <path class="fil0" d="M169 473l2 15c-22,3 -22,-17 -2,-15zm87 -135c-17,8 -25,-17 1,-13l-1 13zm-171 0c-17,7 -26,-16 1,-14l-1 14zm74 48c-12,-8 -28,-11 -43,-37 -44,-77 60,-145 101,-81 31,49 -30,98 -65,59 -14,-15 -25,-49 12,-48 28,1 34,19 42,41 32,-40 -25,-91 -70,-55 -39,31 -18,95 25,109 19,-6 28,-18 54,-17 68,0 94,74 56,112 -28,26 -79,15 -86,-22 -7,-42 40,-66 72,-37 1,35 -26,45 -59,40 17,48 93,19 80,-37 -10,-42 -56,-61 -108,-32 1,46 -13,76 -48,90 -41,17 -77,-8 -86,-39 -12,-41 27,-80 64,-63 34,15 35,65 -8,79 -11,-6 -21,-17 -21,-34 -1,-20 10,-27 17,-40 -63,3 -53,77 -9,90 49,14 87,-30 80,-78zm-159 7c7,87 80,157 175,152 84,-5 160,-81 152,-176 -7,-88 -81,-157 -177,-151 -83,6 -156,81 -150,175z"/>
   <path class="fil1" d="M204 431c3,-15 16,-21 33,-15 4,19 -20,25 -33,15zm-8 5c24,16 49,4 53,-22 -23,-14 -56,-9 -53,22z"/>
   <path class="fil2" d="M157 296c22,0 32,7 31,28 -22,1 -30,-6 -31,-28zm36 34c10,-30 -15,-44 -43,-40 -4,29 14,45 43,40z"/>
   <path class="fil3" d="M96 429c-18,-15 -9,-33 7,-39 9,17 8,29 -7,39zm-4 8c30,-8 24,-31 15,-55 -30,4 -35,34 -15,55z"/>
   <path class="fil4" d="M188 324c1,-21 -9,-28 -31,-28 1,22 9,29 31,28z"/>
   <path class="fil4" d="M96 429c15,-10 16,-22 7,-39 -16,6 -25,24 -7,39z"/>
   <path class="fil5" d="M204 431c13,10 37,4 33,-15 -17,-6 -30,0 -33,15z"/>
  </g>
 </g>
</svg>
